#N canvas 87 176 941 697 12;
#N canvas 0 50 450 250 (subpatch) 0;
#X array audioData2 1.30714e+07 float 2;
#X coords 0 1 1.30714e+07 -1 200 140 1;
#X restore 344 61 graph;
#X obj 93 511 openpanel;
#X msg 93 548 open \$1;
#X obj 93 583 readsf~;
#X obj 94 650 dac~;
#X obj 93 467 bng 19 250 50 0 empty empty empty 0 -10 0 12 #fcfcfc #000000 #000000;
#X msg 17 542 1;
#X obj 135 140 soundfiler;
#X floatatom 133 182 5 0 0 0 - - - 0;
#X msg 133 97 read -resize \$1 audioData2;
#X obj 133 63 openpanel;
#X obj 132 25 bng 19 250 50 0 empty empty empty 0 -10 0 12 #fcfcfc #000000 #000000;
#X obj 570 253 tabread4~ audioData2;
#X obj 575 318 *~;
#X floatatom 592 281 5 0 1 0 - - - 0;
#X obj 573 359 dac~;
#X obj 572 218 vline~;
#X msg 569 177 \$1 \, \$2 \$3;
#X msg 573 100 0;
#X obj 569 65 bng 19 250 50 0 empty empty empty 0 -10 0 12 #fcfcfc #000000 #000000;
#X obj 573 137 pack f f f;
#X obj 611 99 r end;
#X obj 132 219 s end;
#X obj 744 229 r end;
#X obj 745 269 / 44.1;
#X floatatom 748 303 10 0 1 0 - - - 0;
#X connect 1 0 2 0;
#X connect 2 0 3 0;
#X connect 3 0 4 0;
#X connect 3 0 4 1;
#X connect 5 0 1 0;
#X connect 6 0 3 0;
#X connect 7 0 8 0;
#X connect 8 0 22 0;
#X connect 9 0 7 0;
#X connect 10 0 9 0;
#X connect 11 0 10 0;
#X connect 12 0 13 0;
#X connect 13 0 15 0;
#X connect 13 0 15 1;
#X connect 14 0 13 1;
#X connect 16 0 12 0;
#X connect 17 0 16 0;
#X connect 18 0 20 0;
#X connect 19 0 18 0;
#X connect 20 0 17 0;
#X connect 21 0 20 1;
#X connect 23 0 24 0;
#X connect 24 0 25 0;
#X connect 25 0 13 1;
